<?xml version="1.0" standalone="no"?>
<!DOCTYPE svg PUBLIC "-//W3C//DTD SVG 20010904//EN"
 "http://www.w3.org/TR/2001/REC-SVG-20010904/DTD/svg10.dtd">
<svg version="1.0" xmlns="http://www.w3.org/2000/svg"
 width="800.000000pt" height="800.000000pt" viewBox="0 0 800.000000 800.000000"
 preserveAspectRatio="xMidYMid meet">
<metadata>
Created by potrace 1.11, written by Peter Selinger 2001-2013
</metadata>
<g transform="translate(0.000000,800.000000) scale(0.100000,-0.100000)"
fill="#000000" stroke="none">
<path d="M3880 6789 c-63 -79 -123 -153 -132 -164 -94 -114 -688 -862 -688
-867 0 -6 822 -1039 862 -1082 10 -11 28 -35 41 -53 12 -18 27 -33 32 -32 8 0
876 1080 924 1149 12 18 0 36 -140 212 -85 106 -156 195 -159 198 -4 3 -13 14
-21 26 -8 11 -31 41 -51 65 -20 24 -139 172 -263 329 -125 157 -241 302 -259
323 l-32 39 -114 -143z"/>
<path d="M466 4415 l-468 -585 74 -92 c159 -200 601 -754 616 -773 10 -11 33
-40 52 -65 19 -25 37 -47 40 -50 3 -3 38 -47 79 -97 40 -51 76 -93 79 -93 4 1
111 132 237 291 127 160 240 303 252 317 24 30 392 492 424 532 10 13 19 27
19 30 0 5 -223 287 -323 410 -6 8 -146 183 -310 388 -163 204 -299 372 -300
372 -2 0 -214 -263 -471 -585z"/>
<path d="M2765 4738 c-115 -145 -325 -408 -467 -585 l-258 -323 126 -157 c68
-87 130 -165 137 -173 7 -8 160 -201 341 -428 182 -227 333 -411 337 -410 4 2
47 53 94 113 48 61 103 130 123 154 21 24 44 54 52 65 8 12 24 32 36 46 12 14
142 176 289 360 147 184 281 353 298 374 18 21 32 46 32 56 0 14 -912 1168
-925 1169 -3 1 -99 -117 -215 -261z"/>
<path d="M4940 4903 c-41 -53 -80 -101 -85 -107 -6 -6 -80 -99 -165 -206 -85
-107 -159 -200 -165 -206 -13 -15 -6 -7 -215 -269 -96 -121 -177 -222 -180
-225 -3 -3 -15 -17 -27 -33 l-21 -27 246 -308 c136 -170 261 -325 277 -347 32
-41 351 -440 391 -490 21 -25 26 -27 38 -15 7 8 112 139 232 290 120 151 223
280 229 286 5 6 49 60 96 120 47 60 149 189 227 286 l141 177 -30 38 c-17 21
-42 54 -57 72 -15 19 -49 63 -77 97 -27 34 -63 79 -80 100 -16 21 -124 155
-238 298 -115 144 -221 276 -235 295 -117 147 -215 266 -221 268 -3 1 -40 -41
-81 -94z"/>
<path d="M6971 4889 c-131 -163 -120 -149 -351 -439 -116 -146 -216 -272 -223
-280 -26 -32 -103 -129 -132 -165 -16 -21 -34 -43 -40 -49 -5 -6 -23 -29 -40
-51 -16 -22 -35 -46 -42 -53 -14 -15 -17 -38 -5 -44 4 -1 104 -124 222 -273
209 -262 228 -287 260 -325 8 -10 110 -138 225 -283 116 -146 213 -266 217
-266 5 -1 353 429 596 738 15 18 78 97 140 175 224 280 207 254 190 274 -9 9
-211 262 -450 562 -240 300 -444 556 -455 569 l-20 24 -92 -114z"/>
<path d="M939 2395 c-1 -13 -1 -1274 0 -1300 1 -20 7 -20 3054 -20 1678 0
3057 3 3062 7 7 4 10 234 10 665 l0 658 -3063 0 c-2049 0 -3062 -3 -3063 -10z"/>
</g>
</svg>
